<?xml version="1.0" encoding="utf-8"?>
<!-- Generator: Adobe Illustrator 24.1.2, SVG Export Plug-In . SVG Version: 6.00 Build 0)  -->
<svg version="1.1" xmlns="http://www.w3.org/2000/svg" xmlns:xlink="http://www.w3.org/1999/xlink" x="0px" y="0px"
	 viewBox="0 0 2.82 2.83" style="enable-background:new 0 0 2.82 2.83;" xml:space="preserve">
<style type="text/css">
	.st0{fill:#010202;}
	.st1{fill:#FFFFFF;}
	.st2{fill:none;stroke:#000000;stroke-width:0.5;stroke-linecap:round;stroke-linejoin:round;stroke-miterlimit:10;}
	.st3{fill-rule:evenodd;clip-rule:evenodd;}
	.st4{fill:#E84146;}
</style>
<g id="Capa_2">
</g>
<g id="Capa_1">
	<g>
		<path class="st4" d="M1.29,0c0.1,0,0.2,0,0.3,0C1.6,0,1.61,0.01,1.62,0.01c0.4,0.06,0.71,0.25,0.95,0.57
			c0.14,0.19,0.21,0.4,0.25,0.63c0,0.11,0,0.23,0,0.34c0,0.02-0.01,0.05-0.01,0.07C2.74,1.99,2.56,2.29,2.25,2.51
			C1.8,2.82,1.32,2.85,0.82,2.62C0.79,2.61,0.76,2.6,0.73,2.61C0.5,2.69,0.27,2.76,0.04,2.83C0.02,2.83-0.01,2.85,0,2.81
			c0.07-0.2,0.13-0.4,0.21-0.6C0.24,2.13,0.23,2.07,0.2,2c-0.3-0.59-0.13-1.32,0.39-1.72C0.8,0.13,1.03,0.04,1.29,0z M1.44,2.52
			c0.05,0,0.09,0,0.14-0.01c0.65-0.07,1.11-0.7,0.98-1.35C2.44,0.52,1.78,0.11,1.15,0.28C0.39,0.48,0.06,1.33,0.48,2
			C0.5,2.04,0.51,2.08,0.49,2.12C0.46,2.21,0.43,2.31,0.4,2.4c-0.01,0.02-0.02,0.04,0,0.05c0.02,0.01,0.04,0,0.05,0
			c0.1-0.03,0.2-0.06,0.29-0.09c0.04-0.01,0.08-0.01,0.12,0.01C1.04,2.47,1.23,2.52,1.44,2.52z"/>
		<path class="st4" d="M0.74,1.09c0-0.1,0.03-0.19,0.1-0.27c0.05-0.07,0.12-0.09,0.21-0.08C1.08,0.74,1.11,0.76,1.12,0.8
			c0.04,0.09,0.07,0.19,0.11,0.28c0.01,0.03,0,0.06-0.02,0.09C1.19,1.2,1.16,1.23,1.14,1.25C1.11,1.28,1.11,1.31,1.13,1.34
			c0.11,0.19,0.26,0.33,0.45,0.42c0.03,0.01,0.06,0,0.08-0.02c0.03-0.03,0.06-0.07,0.09-0.1C1.78,1.6,1.82,1.58,1.86,1.61
			C1.95,1.65,2.04,1.7,2.12,1.74c0.03,0.01,0.04,0.03,0.04,0.07C2.16,1.89,2.14,1.97,2.07,2.02C1.96,2.11,1.84,2.14,1.7,2.1
			C1.28,1.98,1,1.7,0.8,1.32C0.76,1.25,0.74,1.17,0.74,1.09z"/>
	</g>
</g>
</svg>
